<svg xmlns="http://www.w3.org/2000/svg" xmlns:xlink="http://www.w3.org/1999/xlink" version="1.1" x="0px" y="0px" viewBox="0 0 100 125" enable-background="new 0 0 100 100" xml:space="preserve"><g><path fill="#6b7280" d="M50.2,19.5c-16,0-21.3,14.5-21.3,21.1c0,6.7,3.4,15.9,6.5,21.6c5,9.1,13.4,17.7,13.7,18.1l1.1,1.1l1.1-1.1   c0.4-0.4,8.7-9,13.7-18.1c3.1-5.7,6.5-14.9,6.5-21.6C71.6,34,66.2,19.5,50.2,19.5z M62.4,60.8c-3.8,6.9-9.7,13.6-12.2,16.3   c-2.4-2.6-8.4-9.4-12.2-16.3c-3.1-5.6-6.1-14.3-6.1-20.1c0-5.7,4.6-18.1,18.3-18.1c13.7,0,18.3,12.4,18.3,18.1   C68.6,46.5,65.5,55.2,62.4,60.8z"/><path fill="#6b7280" d="M49.9,27.2c-7.6,0-13.8,6.2-13.8,13.8s6.2,13.8,13.8,13.8s13.8-6.2,13.8-13.8S57.5,27.2,49.9,27.2z    M49.9,51.7c-5.9,0-10.8-4.8-10.8-10.8c0-5.9,4.8-10.8,10.8-10.8c5.9,0,10.8,4.8,10.8,10.8C60.7,46.9,55.9,51.7,49.9,51.7z"/></g><text x="0" y="115" fill="#000000" font-size="5px" font-weight="bold" font-family="'Helvetica Neue', Helvetica, Arial-Unicode, Arial, Sans-serif"></text><text x="0" y="120" fill="#000000" font-size="5px" font-weight="bold" font-family="'Helvetica Neue', Helvetica, Arial-Unicode, Arial, Sans-serif"></text></svg>