<svg version="1.2" xmlns="http://www.w3.org/2000/svg" viewBox="0 0 1550 1550" width="1550" height="1550">
	<title>Volvo-Iron-Mark-Black-svg</title>
	<style>
		.s0 { fill: #ffffff } 
	</style>
	<g id="Volvo_Iron_Mark">
		<path id="Layer" fill-rule="evenodd" class="s0" d="m699.4 812.8h31.6v-93.6h-31.6v-21.1h125.2v21.1h-31v93.6h28.5c27.3 0 44.7-17.3 44.7-41.5h20.4v62.6h-187.8zm215.1-93.6h-31v-21.1h136.4v21.1h-32.9l45.3 83.7 45.9-83.7h-27.3v-21.1h93.6v21.1h-31l-62.6 114.7h-73.2zm-589.6 0h-32.8l45.8 83.7 45.3-83.7h-27.3v-21.1h93.6v21.1h-31l-62 114.7h-73.1l-63.3-114.7h-31v-21.1h135.8zm239.3-23.6c63.3 0 96.8 31 96.8 70.7 0 40.3-31.7 71.9-96.1 71.9-64.5 0-96.8-32.2-96.8-71.9 0-39.7 33.5-71.3 96.1-70.7zm1.3 21.1c-21.7-0.6-34.1 22.3-34.7 48.4 0 24.8 9.9 50.2 32.8 50.8 23.6 0.6 33.5-24.8 34.1-49.6 0.6-26-10.5-49.6-32.2-49.6zm693.1-21.1c63.3 0 96.8 31 96.8 70.7 0 40.3-31.7 71.9-96.1 71.9-64.5 0-96.8-32.2-96.8-71.9 0-39.7 33.5-71.3 96.1-70.7zm-33.4 69.5c0 24.8 9.9 50.2 32.8 50.8 23.6 0.6 33.5-24.8 34.1-49.6 0.6-26-10.5-49-32.2-49.6-21.7-0.6-34.1 22.3-34.7 48.4zm324.8 9.9c0 427.8-347.2 775-775 775-427.8 0-775-347.2-775-775 0-427.8 347.2-775 775-775 163.7 0 316.2 50.8 440.9 137.6l-78.8 78.8c-104.1-67.6-228.1-107.3-362.1-107.3-367.6 0-665.8 298.2-665.8 665.9 0 367.7 298.2 665.9 665.8 665.9 367.7 0 665.9-298.2 665.9-665.9 0-133.3-39-257.3-106.6-361.5l78.7-78.7c86.2 124.6 137 276.5 137 440.2zm-30.3-744.6v354h-21.1c-25.4-45.9-55.2-90.5-89.3-131.4l-110.4 110.3c-32.8-41.5-70.6-78.7-112.2-111.6l110.4-110.3c-40.9-33.5-85-63.9-132.1-89.3v-21.7z"/>
	</g>
</svg>